{"title":"Runner Runner TSCam.mp4","uid":9106275,"size":417780068,"categoryP":"video","categoryS":"movies","magnet":"?xt=urn:btih:63452202557eac9e4b0c06cd4c3914fb3544b454&amp;dn=Runner+Runner+TSCam.mp4&amp;tr=udp%3A%2F%2Ftracker.openbittorrent.com%3A80&amp;tr=udp%3A%2F%2Fopen.demonii.com%3A1337&amp;tr=udp%3A%2F%2Ftracker.coppersurfer.tk%3A6969&amp;tr=udp%3A%2F%2Fexodus.desync.com%3A6969","seeders":1,"leechers":0,"uploader":"globeplus","files":-1,"time":1382882961,"description":"Runner Runner TSCam.mp4\n\nFormat                                   : MPEG-4\nFormat profile                           : Base Media\nCodec ID                                 : isom\nFile size                                : 398 MiB\nDuration                                 : 1h 25mn\nOverall bit rate                         : 652 Kbps\nWriting application                      : Lavf54.32.101\n\nVideo\n\nID                                       : 1\nFormat                                   : AVC\nFormat/Info                              : Advanced Video Codec\nFormat profile                           : &lt;a class=&quot;__cf_email__&quot; href=&quot;/cdn-cgi/l/email-protection&quot; data-cfemail=&quot;a1e9c8c6c9e1ed928f91&quot;&gt;[email&amp;#160;protected]&lt;/a&gt;&lt;script cf-hash='f9e31' type=&quot;text/javascript&quot;&gt;\n/* &lt;![CDATA[ */!function(){try{var t=&quot;currentScript&quot;in document?document.currentScript:function(){for(var t=document.getElementsByTagName(&quot;script&quot;),e=t.length;e--;)if(t[e].getAttribute(&quot;cf-hash&quot;))return t[e]}();if(t&amp;&amp;t.previousSibling){var e,r,n,i,c=t.previousSibling,a=c.getAttribute(&quot;data-cfemail&quot;);if(a){for(e=&quot;&quot;,r=parseInt(a.substr(0,2),16),n=2;a.length-n;n+=2)i=parseInt(a.substr(n,2),16)^r,e+=String.fromCharCode(i);e=document.createTextNode(e),c.parentNode.replaceChild(e,c)}}}catch(u){}}();/* ]]&gt; */&lt;/script&gt;\nFormat settings, CABAC                   : Yes\nFormat settings, ReFrames                : 4 frames\nCodec ID                                 : avc1\nCodec ID/Info                            : Advanced Video Coding\nDuration                                 : 1h 25mn\nBit rate mode                            : Variable\nBit rate                                 : 548 Kbps\nWidth                                    : 720 pixels\nHeight                                   : 336 pixels\nDisplay aspect ratio                     : 2.130\nFrame rate mode                          : Constant\nFrame rate                               : 29.970 fps\nColor space                              : YUV\nChroma subsampling                       : 4:2:0\nBit depth                                : 8 bits\nScan type                                : Progressive\nBits/(Pixel*Frame)                       : 0.076\nStream size                              : 335 MiB (84%)\nWriting library                          : x264 core 128 r2216 198a7ea\n\n\nAudio\n\nID                                       : 2\nFormat                                   : AAC\nFormat/Info                              : Advanced Audio Codec\nFormat profile                           : LC\nCodec ID                                 : 40\nDuration                                 : 1h 25mn\nDuration_LastFrame                       : -16ms\nBit rate mode                            : Constant\nBit rate                                 : 96.0 Kbps\nChannel(s)                               : 2 channels\nChannel positions                        : Front: L R\nSampling rate                            : 48.0 KHz\nCompression mode                         : Lossy\nStream size                              : 58.6 MiB (15%)\n\n\nPlot\n\nRichie Furst used to have a lucrative career on Wall Street; this history prevents him from receiving tuition assistance at Princeton, so he funds his master's degree by referring students to online gambling, for which he receives a cut. After the dean threatens to expel him for these activities, Richie tries to win his tuition using his excellent poker skills in online gambling, but he loses all his money to a cheater, something he is able to prove by statistics.\n\n\n\n\n* enjoy ...\n\n\n","torrent":{"xt":"urn:btih:63452202557eac9e4b0c06cd4c3914fb3544b454","amp;dn":"Runner+Runner+TSCam.mp4","amp;tr":["udp%3A%2F%2Ftracker.openbittorrent.com%3A80","udp%3A%2F%2Fopen.demonii.com%3A1337","udp%3A%2F%2Ftracker.coppersurfer.tk%3A6969","udp%3A%2F%2Fexodus.desync.com%3A6969"],"infoHash":"63452202557eac9e4b0c06cd4c3914fb3544b454","infoHashBuffer":{"type":"Buffer","data":[99,69,34,2,85,126,172,158,75,12,6,205,76,57,20,251,53,68,180,84]},"announce":[],"urlList":[]}}